<mxfile host="app.diagrams.net" modified="2023-10-25T22:39:42.760Z" agent="Mozilla/5.0 (Macintosh; Intel Mac OS X 10_15_7) AppleWebKit/537.36 (KHTML, like Gecko) Chrome/118.0.0.0 Safari/537.36" etag="uWL2sZS-VYrHGCP6Ahiq" version="22.0.8" type="github">
  <diagram id="prtHgNgQTEPvFCAcTncT" name="Page-1">
    <mxGraphModel dx="826" dy="445" grid="1" gridSize="10" guides="1" tooltips="1" connect="1" arrows="1" fold="1" page="1" pageScale="1" pageWidth="827" pageHeight="1169" math="0" shadow="0">
      <root>
        <mxCell id="0" />
        <mxCell id="1" parent="0" />
        <mxCell id="dNxyNK7c78bLwvsdeMH5-19" value="Process D2L" style="swimlane;html=1;childLayout=stackLayout;resizeParent=1;resizeParentMax=0;horizontal=0;startSize=20;horizontalStack=0;" parent="1" vertex="1">
          <mxGeometry x="120" y="120" width="680" height="310" as="geometry" />
        </mxCell>
        <mxCell id="dNxyNK7c78bLwvsdeMH5-20" value="User" style="swimlane;html=1;startSize=20;horizontal=0;" parent="dNxyNK7c78bLwvsdeMH5-19" vertex="1">
          <mxGeometry x="20" width="660" height="120" as="geometry" />
        </mxCell>
        <mxCell id="U5WbldaSK4e8b2G5kAHO-6" value="Start" style="points=[[0.145,0.145,0],[0.5,0,0],[0.855,0.145,0],[1,0.5,0],[0.855,0.855,0],[0.5,1,0],[0.145,0.855,0],[0,0.5,0]];shape=mxgraph.bpmn.event;html=1;verticalLabelPosition=bottom;labelBackgroundColor=#ffffff;verticalAlign=top;align=center;perimeter=ellipsePerimeter;outlineConnect=0;aspect=fixed;outline=standard;symbol=general;" parent="dNxyNK7c78bLwvsdeMH5-20" vertex="1">
          <mxGeometry x="30" y="35" width="50" height="50" as="geometry" />
        </mxCell>
        <mxCell id="U5WbldaSK4e8b2G5kAHO-7" value="Log in to your D2L account&lt;span style=&quot;font-size: medium; text-align: start;&quot;&gt;&lt;/span&gt;" style="points=[[0.25,0,0],[0.5,0,0],[0.75,0,0],[1,0.25,0],[1,0.5,0],[1,0.75,0],[0.75,1,0],[0.5,1,0],[0.25,1,0],[0,0.75,0],[0,0.5,0],[0,0.25,0]];shape=mxgraph.bpmn.task;whiteSpace=wrap;rectStyle=rounded;size=10;html=1;container=1;expand=0;collapsible=0;taskMarker=abstract;" parent="dNxyNK7c78bLwvsdeMH5-20" vertex="1">
          <mxGeometry x="110" y="35" width="80" height="50" as="geometry" />
        </mxCell>
        <mxCell id="U5WbldaSK4e8b2G5kAHO-5" value="&lt;h1&gt;Sign In D2L Process Flow&lt;/h1&gt;" style="text;html=1;strokeColor=none;fillColor=none;spacing=5;spacingTop=-20;whiteSpace=wrap;overflow=hidden;rounded=0;align=center;" parent="U5WbldaSK4e8b2G5kAHO-7" vertex="1">
          <mxGeometry x="-135" y="-96" width="685" height="120" as="geometry" />
        </mxCell>
        <mxCell id="U5WbldaSK4e8b2G5kAHO-21" value="Select Assesments&lt;span style=&quot;font-size: medium; text-align: start;&quot;&gt;&lt;/span&gt;" style="points=[[0.25,0,0],[0.5,0,0],[0.75,0,0],[1,0.25,0],[1,0.5,0],[1,0.75,0],[0.75,1,0],[0.5,1,0],[0.25,1,0],[0,0.75,0],[0,0.5,0],[0,0.25,0]];shape=mxgraph.bpmn.task;whiteSpace=wrap;rectStyle=rounded;size=10;html=1;container=1;expand=0;collapsible=0;taskMarker=abstract;" parent="U5WbldaSK4e8b2G5kAHO-7" vertex="1">
          <mxGeometry x="197" y="-5" width="80" height="50" as="geometry" />
        </mxCell>
        <mxCell id="U5WbldaSK4e8b2G5kAHO-28" value="" style="edgeStyle=elbowEdgeStyle;fontSize=12;html=1;endArrow=blockThin;endFill=1;rounded=0;entryX=0;entryY=0.5;entryDx=0;entryDy=0;entryPerimeter=0;" parent="U5WbldaSK4e8b2G5kAHO-7" target="U5WbldaSK4e8b2G5kAHO-19" edge="1">
          <mxGeometry width="160" relative="1" as="geometry">
            <mxPoint x="80" y="24" as="sourcePoint" />
            <mxPoint x="240" y="24" as="targetPoint" />
          </mxGeometry>
        </mxCell>
        <mxCell id="U5WbldaSK4e8b2G5kAHO-9" value="" style="edgeStyle=elbowEdgeStyle;fontSize=12;html=1;endArrow=blockThin;endFill=1;rounded=0;exitX=1;exitY=0.5;exitDx=0;exitDy=0;exitPerimeter=0;entryX=0;entryY=0.25;entryDx=0;entryDy=0;entryPerimeter=0;" parent="dNxyNK7c78bLwvsdeMH5-20" source="U5WbldaSK4e8b2G5kAHO-6" target="U5WbldaSK4e8b2G5kAHO-7" edge="1">
          <mxGeometry width="160" relative="1" as="geometry">
            <mxPoint x="160" y="50" as="sourcePoint" />
            <mxPoint x="110" y="60" as="targetPoint" />
          </mxGeometry>
        </mxCell>
        <mxCell id="U5WbldaSK4e8b2G5kAHO-23" value="Click Dropbox&lt;span style=&quot;font-size: medium; text-align: start;&quot;&gt;&lt;/span&gt;" style="points=[[0.25,0,0],[0.5,0,0],[0.75,0,0],[1,0.25,0],[1,0.5,0],[1,0.75,0],[0.75,1,0],[0.5,1,0],[0.25,1,0],[0,0.75,0],[0,0.5,0],[0,0.25,0]];shape=mxgraph.bpmn.task;whiteSpace=wrap;rectStyle=rounded;size=10;html=1;container=1;expand=0;collapsible=0;taskMarker=abstract;" parent="dNxyNK7c78bLwvsdeMH5-20" vertex="1">
          <mxGeometry x="400" y="30" width="80" height="50" as="geometry" />
        </mxCell>
        <mxCell id="U5WbldaSK4e8b2G5kAHO-25" value="Submit Assigment&lt;span style=&quot;font-size: medium; text-align: start;&quot;&gt;&lt;/span&gt;" style="points=[[0.25,0,0],[0.5,0,0],[0.75,0,0],[1,0.25,0],[1,0.5,0],[1,0.75,0],[0.75,1,0],[0.5,1,0],[0.25,1,0],[0,0.75,0],[0,0.5,0],[0,0.25,0]];shape=mxgraph.bpmn.task;whiteSpace=wrap;rectStyle=rounded;size=10;html=1;container=1;expand=0;collapsible=0;taskMarker=abstract;" parent="dNxyNK7c78bLwvsdeMH5-20" vertex="1">
          <mxGeometry x="500" y="30" width="80" height="50" as="geometry" />
        </mxCell>
        <mxCell id="U5WbldaSK4e8b2G5kAHO-27" value="End" style="points=[[0.145,0.145,0],[0.5,0,0],[0.855,0.145,0],[1,0.5,0],[0.855,0.855,0],[0.5,1,0],[0.145,0.855,0],[0,0.5,0]];shape=mxgraph.bpmn.event;html=1;verticalLabelPosition=bottom;labelBackgroundColor=#ffffff;verticalAlign=top;align=center;perimeter=ellipsePerimeter;outlineConnect=0;aspect=fixed;outline=end;symbol=terminate2;" parent="dNxyNK7c78bLwvsdeMH5-20" vertex="1">
          <mxGeometry x="597" y="30" width="50" height="50" as="geometry" />
        </mxCell>
        <mxCell id="U5WbldaSK4e8b2G5kAHO-30" value="" style="edgeStyle=elbowEdgeStyle;fontSize=12;html=1;endArrow=blockThin;endFill=1;rounded=0;exitX=1;exitY=0.5;exitDx=0;exitDy=0;exitPerimeter=0;entryX=0;entryY=0.5;entryDx=0;entryDy=0;entryPerimeter=0;" parent="dNxyNK7c78bLwvsdeMH5-20" source="U5WbldaSK4e8b2G5kAHO-21" target="U5WbldaSK4e8b2G5kAHO-23" edge="1">
          <mxGeometry width="160" relative="1" as="geometry">
            <mxPoint x="240" y="200" as="sourcePoint" />
            <mxPoint x="400" y="200" as="targetPoint" />
          </mxGeometry>
        </mxCell>
        <mxCell id="U5WbldaSK4e8b2G5kAHO-31" value="" style="edgeStyle=elbowEdgeStyle;fontSize=12;html=1;endArrow=blockThin;endFill=1;rounded=0;exitX=1;exitY=0.5;exitDx=0;exitDy=0;exitPerimeter=0;entryX=0;entryY=0.75;entryDx=0;entryDy=0;entryPerimeter=0;" parent="dNxyNK7c78bLwvsdeMH5-20" source="U5WbldaSK4e8b2G5kAHO-23" target="U5WbldaSK4e8b2G5kAHO-25" edge="1">
          <mxGeometry width="160" relative="1" as="geometry">
            <mxPoint x="240" y="200" as="sourcePoint" />
            <mxPoint x="400" y="200" as="targetPoint" />
          </mxGeometry>
        </mxCell>
        <mxCell id="U5WbldaSK4e8b2G5kAHO-32" style="edgeStyle=orthogonalEdgeStyle;rounded=0;orthogonalLoop=1;jettySize=auto;html=1;exitX=0.5;exitY=1;exitDx=0;exitDy=0;exitPerimeter=0;entryX=0.75;entryY=1;entryDx=0;entryDy=0;entryPerimeter=0;" parent="dNxyNK7c78bLwvsdeMH5-20" source="U5WbldaSK4e8b2G5kAHO-25" target="U5WbldaSK4e8b2G5kAHO-25" edge="1">
          <mxGeometry relative="1" as="geometry" />
        </mxCell>
        <mxCell id="U5WbldaSK4e8b2G5kAHO-43" value="" style="edgeStyle=elbowEdgeStyle;fontSize=12;html=1;endArrow=blockThin;endFill=1;rounded=0;exitX=0.5;exitY=1;exitDx=0;exitDy=0;exitPerimeter=0;entryX=0.5;entryY=0;entryDx=0;entryDy=0;entryPerimeter=0;" parent="dNxyNK7c78bLwvsdeMH5-20" source="U5WbldaSK4e8b2G5kAHO-25" target="U5WbldaSK4e8b2G5kAHO-34" edge="1">
          <mxGeometry width="160" relative="1" as="geometry">
            <mxPoint x="320" y="100" as="sourcePoint" />
            <mxPoint x="480" y="100" as="targetPoint" />
            <Array as="points">
              <mxPoint x="490" y="130" />
            </Array>
          </mxGeometry>
        </mxCell>
        <mxCell id="U5WbldaSK4e8b2G5kAHO-1" value="System" style="swimlane;html=1;startSize=20;horizontal=0;" parent="dNxyNK7c78bLwvsdeMH5-19" vertex="1">
          <mxGeometry x="20" y="120" width="660" height="190" as="geometry" />
        </mxCell>
        <mxCell id="U5WbldaSK4e8b2G5kAHO-13" value="" style="edgeStyle=orthogonalEdgeStyle;rounded=0;orthogonalLoop=1;jettySize=auto;html=1;entryX=0;entryY=0.25;entryDx=0;entryDy=0;entryPerimeter=0;" parent="U5WbldaSK4e8b2G5kAHO-1" source="U5WbldaSK4e8b2G5kAHO-10" target="U5WbldaSK4e8b2G5kAHO-14" edge="1">
          <mxGeometry relative="1" as="geometry">
            <mxPoint x="225" y="45" as="targetPoint" />
          </mxGeometry>
        </mxCell>
        <mxCell id="U5WbldaSK4e8b2G5kAHO-16" value="Yes" style="edgeLabel;html=1;align=center;verticalAlign=middle;resizable=0;points=[];" parent="U5WbldaSK4e8b2G5kAHO-13" vertex="1" connectable="0">
          <mxGeometry x="-0.4728" y="2" relative="1" as="geometry">
            <mxPoint as="offset" />
          </mxGeometry>
        </mxCell>
        <mxCell id="U5WbldaSK4e8b2G5kAHO-10" value="User Exist" style="points=[[0.25,0.25,0],[0.5,0,0],[0.75,0.25,0],[1,0.5,0],[0.75,0.75,0],[0.5,1,0],[0.25,0.75,0],[0,0.5,0]];shape=mxgraph.bpmn.gateway2;html=1;verticalLabelPosition=bottom;labelBackgroundColor=#ffffff;verticalAlign=top;align=center;perimeter=rhombusPerimeter;outlineConnect=0;outline=none;symbol=none;gwType=exclusive;" parent="U5WbldaSK4e8b2G5kAHO-1" vertex="1">
          <mxGeometry x="50" y="40" width="30" height="30" as="geometry" />
        </mxCell>
        <mxCell id="U5WbldaSK4e8b2G5kAHO-14" value="Logged In&amp;nbsp;" style="points=[[0.25,0,0],[0.5,0,0],[0.75,0,0],[1,0.25,0],[1,0.5,0],[1,0.75,0],[0.75,1,0],[0.5,1,0],[0.25,1,0],[0,0.75,0],[0,0.5,0],[0,0.25,0]];shape=mxgraph.bpmn.task;whiteSpace=wrap;rectStyle=rounded;size=10;html=1;container=1;expand=0;collapsible=0;taskMarker=abstract;" parent="U5WbldaSK4e8b2G5kAHO-1" vertex="1">
          <mxGeometry x="140" y="40" width="60" height="42.5" as="geometry" />
        </mxCell>
        <mxCell id="U5WbldaSK4e8b2G5kAHO-18" value="End" style="points=[[0.145,0.145,0],[0.5,0,0],[0.855,0.145,0],[1,0.5,0],[0.855,0.855,0],[0.5,1,0],[0.145,0.855,0],[0,0.5,0]];shape=mxgraph.bpmn.event;html=1;verticalLabelPosition=bottom;labelBackgroundColor=#ffffff;verticalAlign=top;align=center;perimeter=ellipsePerimeter;outlineConnect=0;aspect=fixed;outline=end;symbol=terminate2;" parent="U5WbldaSK4e8b2G5kAHO-1" vertex="1">
          <mxGeometry x="540" y="27.5" width="50" height="50" as="geometry" />
        </mxCell>
        <mxCell id="U5WbldaSK4e8b2G5kAHO-33" value="" style="edgeStyle=elbowEdgeStyle;fontSize=12;html=1;endArrow=blockThin;endFill=1;rounded=0;exitX=1;exitY=0.5;exitDx=0;exitDy=0;exitPerimeter=0;" parent="U5WbldaSK4e8b2G5kAHO-1" source="U5WbldaSK4e8b2G5kAHO-25" edge="1">
          <mxGeometry width="160" relative="1" as="geometry">
            <mxPoint x="470" y="31.44999999999999" as="sourcePoint" />
            <mxPoint x="600" y="-65" as="targetPoint" />
          </mxGeometry>
        </mxCell>
        <mxCell id="U5WbldaSK4e8b2G5kAHO-34" value="Receive Submision" style="points=[[0.25,0.25,0],[0.5,0,0],[0.75,0.25,0],[1,0.5,0],[0.75,0.75,0],[0.5,1,0],[0.25,0.75,0],[0,0.5,0]];shape=mxgraph.bpmn.gateway2;html=1;verticalLabelPosition=bottom;labelBackgroundColor=#ffffff;verticalAlign=top;align=center;perimeter=rhombusPerimeter;outlineConnect=0;outline=none;symbol=none;gwType=exclusive;" parent="U5WbldaSK4e8b2G5kAHO-1" vertex="1">
          <mxGeometry x="380" y="35" width="30" height="35" as="geometry" />
        </mxCell>
        <mxCell id="U5WbldaSK4e8b2G5kAHO-35" value="" style="edgeStyle=elbowEdgeStyle;fontSize=12;html=1;endArrow=blockThin;endFill=1;rounded=0;exitX=1;exitY=0.5;exitDx=0;exitDy=0;exitPerimeter=0;elbow=vertical;entryX=0;entryY=0.5;entryDx=0;entryDy=0;entryPerimeter=0;" parent="U5WbldaSK4e8b2G5kAHO-1" source="U5WbldaSK4e8b2G5kAHO-34" target="U5WbldaSK4e8b2G5kAHO-18" edge="1">
          <mxGeometry width="160" relative="1" as="geometry">
            <mxPoint x="240" y="80" as="sourcePoint" />
            <mxPoint x="490" y="60" as="targetPoint" />
          </mxGeometry>
        </mxCell>
        <mxCell id="U5WbldaSK4e8b2G5kAHO-36" value="Confirm Submisssion" style="edgeLabel;html=1;align=center;verticalAlign=middle;resizable=0;points=[];" parent="U5WbldaSK4e8b2G5kAHO-35" vertex="1" connectable="0">
          <mxGeometry x="-0.4722" y="-1" relative="1" as="geometry">
            <mxPoint x="28" as="offset" />
          </mxGeometry>
        </mxCell>
        <mxCell id="U5WbldaSK4e8b2G5kAHO-38" value="End" style="points=[[0.145,0.145,0],[0.5,0,0],[0.855,0.145,0],[1,0.5,0],[0.855,0.855,0],[0.5,1,0],[0.145,0.855,0],[0,0.5,0]];shape=mxgraph.bpmn.event;html=1;verticalLabelPosition=bottom;labelBackgroundColor=#ffffff;verticalAlign=top;align=center;perimeter=ellipsePerimeter;outlineConnect=0;aspect=fixed;outline=end;symbol=terminate2;" parent="U5WbldaSK4e8b2G5kAHO-1" vertex="1">
          <mxGeometry x="230" y="36.25" width="50" height="50" as="geometry" />
        </mxCell>
        <mxCell id="U5WbldaSK4e8b2G5kAHO-40" value="Display Confirmation Message" style="points=[[0.25,0,0],[0.5,0,0],[0.75,0,0],[1,0.25,0],[1,0.5,0],[1,0.75,0],[0.75,1,0],[0.5,1,0],[0.25,1,0],[0,0.75,0],[0,0.5,0],[0,0.25,0]];shape=mxgraph.bpmn.task;whiteSpace=wrap;rectStyle=rounded;size=10;html=1;container=1;expand=0;collapsible=0;taskMarker=send;" parent="U5WbldaSK4e8b2G5kAHO-1" vertex="1">
          <mxGeometry x="410" y="120" width="90" height="50" as="geometry" />
        </mxCell>
        <mxCell id="U5WbldaSK4e8b2G5kAHO-41" value="" style="edgeStyle=elbowEdgeStyle;fontSize=12;html=1;endArrow=blockThin;endFill=1;rounded=0;exitX=0.5;exitY=1;exitDx=0;exitDy=0;exitPerimeter=0;entryX=0;entryY=0.5;entryDx=0;entryDy=0;entryPerimeter=0;" parent="U5WbldaSK4e8b2G5kAHO-1" source="U5WbldaSK4e8b2G5kAHO-34" target="U5WbldaSK4e8b2G5kAHO-40" edge="1">
          <mxGeometry width="160" relative="1" as="geometry">
            <mxPoint x="100" y="-10" as="sourcePoint" />
            <mxPoint x="260" y="-10" as="targetPoint" />
            <Array as="points">
              <mxPoint x="320" y="110" />
            </Array>
          </mxGeometry>
        </mxCell>
        <mxCell id="U5WbldaSK4e8b2G5kAHO-17" value="" style="edgeStyle=elbowEdgeStyle;fontSize=12;html=1;endArrow=blockThin;endFill=1;rounded=0;entryX=0.5;entryY=0;entryDx=0;entryDy=0;entryPerimeter=0;exitX=0.5;exitY=1;exitDx=0;exitDy=0;exitPerimeter=0;" parent="dNxyNK7c78bLwvsdeMH5-19" source="U5WbldaSK4e8b2G5kAHO-7" target="U5WbldaSK4e8b2G5kAHO-10" edge="1">
          <mxGeometry width="160" relative="1" as="geometry">
            <mxPoint x="100" y="120" as="sourcePoint" />
            <mxPoint x="260" y="120" as="targetPoint" />
          </mxGeometry>
        </mxCell>
        <mxCell id="U5WbldaSK4e8b2G5kAHO-19" value="Select Course&lt;span style=&quot;font-size: medium; text-align: start;&quot;&gt;&lt;/span&gt;" style="points=[[0.25,0,0],[0.5,0,0],[0.75,0,0],[1,0.25,0],[1,0.5,0],[1,0.75,0],[0.75,1,0],[0.5,1,0],[0.25,1,0],[0,0.75,0],[0,0.5,0],[0,0.25,0]];shape=mxgraph.bpmn.task;whiteSpace=wrap;rectStyle=rounded;size=10;html=1;container=1;expand=0;collapsible=0;taskMarker=abstract;" parent="1" vertex="1">
          <mxGeometry x="350" y="150" width="80" height="50" as="geometry" />
        </mxCell>
        <mxCell id="U5WbldaSK4e8b2G5kAHO-29" value="" style="edgeStyle=elbowEdgeStyle;fontSize=12;html=1;endArrow=blockThin;endFill=1;rounded=0;exitX=1;exitY=0.5;exitDx=0;exitDy=0;exitPerimeter=0;entryX=0;entryY=0.5;entryDx=0;entryDy=0;entryPerimeter=0;" parent="1" source="U5WbldaSK4e8b2G5kAHO-19" target="U5WbldaSK4e8b2G5kAHO-21" edge="1">
          <mxGeometry width="160" relative="1" as="geometry">
            <mxPoint x="380" y="320" as="sourcePoint" />
            <mxPoint x="540" y="320" as="targetPoint" />
          </mxGeometry>
        </mxCell>
        <mxCell id="U5WbldaSK4e8b2G5kAHO-39" value="" style="edgeStyle=elbowEdgeStyle;fontSize=12;html=1;endArrow=blockThin;endFill=1;rounded=0;exitX=1;exitY=0.5;exitDx=0;exitDy=0;exitPerimeter=0;" parent="1" source="U5WbldaSK4e8b2G5kAHO-14" edge="1">
          <mxGeometry width="160" relative="1" as="geometry">
            <mxPoint x="380" y="320" as="sourcePoint" />
            <mxPoint x="370" y="300" as="targetPoint" />
          </mxGeometry>
        </mxCell>
      </root>
    </mxGraphModel>
  </diagram>
</mxfile>
